<?xml version="1.0" encoding="iso-8859-1"?>
<!-- Generator: Adobe Illustrator 19.0.0, SVG Export Plug-In . SVG Version: 6.00 Build 0)  -->
<svg version="1.1" id="Layer_1" xmlns="http://www.w3.org/2000/svg" xmlns:xlink="http://www.w3.org/1999/xlink" x="0px" y="0px"
	 viewBox="0 0 505 505" style="enable-background:new 0 0 505 505;" xml:space="preserve">
<circle style="fill:#FD8469;" cx="252.5" cy="252.5" r="252.5"/>
<polygon style="fill:#324A5E;" points="318.2,350.9 253.7,237.5 219.7,330.9 201.1,324.1 249.8,190.6 314.3,304.1 365.6,163.4 
	384.2,170.2 "/>
<circle style="fill:#FFFFFF;" cx="210.4" cy="327.5" r="29.9"/>
<circle style="fill:#4CDBC4;" cx="210.4" cy="327.5" r="16.5"/>
<circle style="fill:#FFFFFF;" cx="251.8" cy="214.1" r="29.9"/>
<circle style="fill:#4CDBC4;" cx="251.8" cy="214.1" r="16.5"/>
<circle style="fill:#FFFFFF;" cx="316.2" cy="327.5" r="29.9"/>
<circle style="fill:#4CDBC4;" cx="316.2" cy="327.5" r="16.5"/>
<circle style="fill:#FFFFFF;" cx="374.9" cy="166.8" r="29.9"/>
<circle style="fill:#4CDBC4;" cx="374.9" cy="166.8" r="16.5"/>
<polygon style="fill:#FFFFFF;" points="122.3,382.7 122.3,361 150.2,361 150.2,341.3 122.3,341.3 122.3,307.4 150.2,307.4 
	150.2,287.7 122.3,287.7 122.3,253.9 150.2,253.9 150.2,234.2 122.3,234.2 122.3,200.3 150.2,200.3 150.2,180.6 122.3,180.6 
	122.3,146.8 150.2,146.8 150.2,127.1 122.3,127.1 122.3,100.2 102.6,100.2 102.6,402.4 404.8,402.4 404.8,382.7 "/>
<g>
</g>
<g>
</g>
<g>
</g>
<g>
</g>
<g>
</g>
<g>
</g>
<g>
</g>
<g>
</g>
<g>
</g>
<g>
</g>
<g>
</g>
<g>
</g>
<g>
</g>
<g>
</g>
<g>
</g>
</svg>
